<svg width="292" height="56" viewBox="0 0 292 56" fill="none" xmlns="http://www.w3.org/2000/svg">
<rect x="4.7" y="4.2" width="47.6" height="47.6" rx="23.8" fill="white"/>
<rect x="4.7" y="4.2" width="47.6" height="47.6" rx="23.8" stroke="white" stroke-width="8.4"/>
<mask id="mask0_16930_141292" style="mask-type:luminance" maskUnits="userSpaceOnUse" x="5" y="5" width="47" height="46">
<path d="M51.25 5.25H5.75V50.75H51.25V5.25Z" fill="white"/>
</mask>
<g mask="url(#mask0_16930_141292)">
<path d="M28.1445 5.25C28.3817 5.25 28.6183 5.25 28.8555 5.25C28.9807 5.28377 29.1035 5.33798 29.2306 5.34864C29.76 5.39219 30.2924 5.40909 30.8221 5.45972C32.7149 5.64013 34.5544 6.06669 36.3354 6.72521C38.2718 7.44148 40.0804 8.40656 41.759 9.61693C44.631 11.6875 46.8956 14.2905 48.545 17.4124C50.171 20.4898 51.0475 23.7806 51.1522 27.2686C51.1558 27.3948 51.2162 27.5201 51.25 27.6454V28.3564C51.2152 28.5261 51.1567 28.694 51.1505 28.8647C51.0803 30.7646 50.7781 32.629 50.236 34.4483C49.4956 36.9339 48.3643 39.2346 46.8352 41.3344C44.7708 44.1694 42.1864 46.4132 39.0885 48.0467C36.0091 49.671 32.7195 50.5439 29.2322 50.6531C29.1061 50.6567 28.9816 50.7172 28.8562 50.751H28.1454C27.9758 50.7162 27.8077 50.6691 27.6361 50.6496C26.433 50.5127 25.211 50.4718 24.03 50.23C21.3169 49.6746 18.7662 48.6706 16.4168 47.1792C13.0193 45.0235 10.3604 42.1752 8.47467 38.6275C6.83241 35.5393 5.95527 32.2338 5.84776 28.7305C5.84418 28.6043 5.78377 28.4808 5.75 28.3555C5.75 28.1182 5.75 27.8818 5.75 27.6445C5.78464 27.4757 5.84331 27.3068 5.84955 27.1362C5.91263 25.2354 6.2219 23.3709 6.76488 21.5536C7.49447 19.1124 8.59996 16.8516 10.0921 14.7774C12.16 11.9035 14.7548 9.62937 17.8732 7.97379C20.9613 6.33595 24.2656 5.45261 27.7694 5.34776C27.8958 5.34419 28.0193 5.28377 28.1445 5.25ZM28.0102 38.4312C29.8614 38.4312 31.7126 38.424 33.5628 38.4374C33.919 38.44 34.128 38.3113 34.3038 38.0012C35.1358 36.5338 35.9958 35.0827 36.8294 33.6163C36.9831 33.3462 37.17 33.2539 37.4703 33.2582C38.4469 33.2725 39.4252 33.252 40.4018 33.2679C40.8214 33.2751 40.9797 33.1135 40.9777 32.692C40.968 29.5676 40.9735 26.4439 40.9715 23.3193C40.9715 22.8066 40.8997 22.7391 40.369 22.7373C39.4067 22.7337 38.4443 22.724 37.4817 22.7426C37.1583 22.7488 36.9682 22.636 36.8099 22.3578C35.9763 20.8915 35.1232 19.4368 34.2889 17.9713C34.1332 17.6985 33.9467 17.5643 33.6204 17.5643C29.8891 17.5723 26.1574 17.5714 22.4261 17.5652C22.1229 17.5652 21.9451 17.6781 21.7923 17.9438C19.9411 21.1635 18.0811 24.3778 16.2134 27.5877C16.0434 27.8791 16.0363 28.1093 16.2079 28.4043C18.0678 31.6016 19.9206 34.8045 21.7595 38.0136C21.9408 38.3291 22.1505 38.44 22.5025 38.4383C24.3384 38.426 26.1743 38.4322 28.0102 38.4322V38.4312Z" fill="url(#paint0_linear_16930_141292)"/>
<path d="M31.027 21.2215C31.7075 21.018 32.0764 21.321 32.4001 21.9067C33.444 23.796 34.538 25.6578 35.6303 27.5195C35.8337 27.8661 35.8363 28.1372 35.6277 28.4908C34.4476 30.4895 33.2948 32.5051 32.1281 34.5106C31.8606 34.9712 30.1427 34.9595 29.8742 34.5035C29.8593 34.4778 29.8531 34.446 29.8342 34.4245C29.1127 33.5954 29.1589 32.8275 29.8034 31.9139C30.5665 30.8307 31.1398 29.615 31.8294 28.4766C32.0472 28.1176 32.0251 27.8554 31.8177 27.5062C30.9656 26.0692 30.1472 24.6118 29.3048 23.1686C29.1599 22.9206 29.1358 22.7145 29.309 22.4781C29.413 22.3359 29.5063 22.1786 29.5697 22.0151C29.8326 21.3326 30.2733 20.9798 31.027 21.2197V21.2215Z" fill="#2A81D0"/>
<path d="M25.1543 21.1885C25.7852 20.9894 26.2145 21.3386 26.4625 22.0096C26.4979 22.1047 26.56 22.1926 26.624 22.2735C26.9093 22.6361 26.8668 22.9729 26.6337 23.363C25.8082 24.7467 25.0201 26.1517 24.1979 27.538C23.9964 27.8775 24.0159 28.1503 24.2112 28.48C25.0406 29.8788 25.8394 31.2952 26.6737 32.6904C26.8853 33.045 26.8232 33.3124 26.6737 33.6706C26.2899 34.5985 25.6838 34.992 24.66 34.8403C24.2567 34.7808 24.0006 34.7051 23.79 34.333C22.6544 32.3261 21.4948 30.3338 20.3349 28.3405C20.2017 28.1121 20.1838 27.9281 20.3235 27.6882C21.4841 25.6958 22.6427 23.7016 23.776 21.6932C23.9938 21.3067 24.2388 21.1093 24.6831 21.184C24.7978 21.2036 24.9197 21.1867 25.1543 21.1867V21.1885Z" fill="#2A81D0"/>
</g>
<path d="M69.8 6H75.36C77.28 6 78.88 6.68 80.16 8.02C81.46 9.36 82.1 11.02 82.1 13C82.1 14.98 81.46 16.64 80.16 17.98C78.88 19.32 77.28 20 75.36 20H69.8V6ZM72.56 17.36H75.36C76.58 17.36 77.56 16.96 78.32 16.16C79.08 15.34 79.46 14.3 79.46 13C79.46 11.7 79.08 10.66 78.32 9.86C77.56 9.04 76.58 8.64 75.36 8.64H72.56V17.36ZM86.8178 14.22V17.36H92.7178V20H84.0578V6H92.6178V8.64H86.8178V11.62H92.1178V14.22H86.8178ZM105.523 6H108.363V20H105.623V10.92L101.683 17.42H101.363L97.4233 10.94V20H94.6633V6H97.5033L101.523 12.62L105.523 6ZM122.752 18.18C121.332 19.58 119.612 20.28 117.592 20.28C115.572 20.28 113.852 19.58 112.432 18.18C111.032 16.76 110.332 15.04 110.332 13C110.332 10.96 111.032 9.24 112.432 7.84C113.852 6.42 115.572 5.72 117.592 5.72C119.612 5.72 121.332 6.42 122.752 7.84C124.172 9.24 124.872 10.96 124.872 13C124.872 15.04 124.172 16.76 122.752 18.18ZM114.372 16.3C115.232 17.16 116.312 17.58 117.592 17.58C118.872 17.58 119.952 17.16 120.812 16.3C121.672 15.44 122.112 14.34 122.112 13C122.112 11.66 121.672 10.56 120.812 9.7C119.952 8.84 118.872 8.4 117.592 8.4C116.312 8.4 115.232 8.84 114.372 9.7C113.512 10.56 113.072 11.66 113.072 13C113.072 14.34 113.512 15.44 114.372 16.3ZM139.772 11.56V6H142.512V20H139.772V14.2H134.572V20H131.812V6H134.572V11.56H139.772ZM150.133 4.9L149.333 3.68L148.513 4.9H146.133L148.093 2.2H150.533L152.513 4.9H150.133ZM147.873 14.22V17.36H153.773V20H145.113V6H153.673V8.64H147.873V11.62H153.173V14.22H147.873ZM149.413 24.56C148.553 24.56 147.833 23.86 147.833 23.02C147.833 22.18 148.553 21.46 149.413 21.46C150.293 21.46 151.013 22.18 151.013 23.02C151.013 23.86 150.293 24.56 149.413 24.56ZM159.678 6H169.978V8.64H166.198V20H163.438V8.64H159.678V6ZM179.479 11.56V6H182.219V20H179.479V14.2H174.279V20H171.519V6H174.279V11.56H179.479ZM186.28 7.84C187.7 6.42 189.42 5.72 191.44 5.72C193.46 5.72 195.18 6.42 196.6 7.84C198.02 9.24 198.72 10.96 198.72 13C198.72 15.04 198.02 16.76 196.6 18.18C195.18 19.58 193.46 20.28 191.44 20.28C189.42 20.28 187.7 19.58 186.28 18.18C184.88 16.76 184.18 15.04 184.18 13C184.18 10.96 184.88 9.24 186.28 7.84ZM188.22 16.3C189.08 17.16 190.16 17.58 191.44 17.58C192.72 17.58 193.8 17.16 194.66 16.3C195.52 15.44 195.96 14.34 195.96 13C195.96 11.66 195.52 10.56 194.66 9.7C193.8 8.84 192.72 8.4 191.44 8.4C190.16 8.4 189.08 8.84 188.22 9.7C187.36 10.56 186.92 11.66 186.92 13C186.92 14.34 187.36 15.44 188.22 16.3ZM192.28 4.74L191.48 3.52L190.66 4.74H188.28L190.24 2.04H192.68L194.66 4.74H192.28ZM193.84 2.74L195.34 0.199999H198.22L196.16 2.74H193.84ZM208.759 14.54V6H211.519V20H209.419L203.419 11.44V20H200.659V6H202.759L208.759 14.54ZM220.836 12.48H227.856V13.56C227.856 15.56 227.216 17.18 225.936 18.42C224.656 19.66 222.996 20.28 220.976 20.28C218.816 20.28 217.016 19.58 215.596 18.18C214.176 16.76 213.476 15.04 213.476 13.02C213.476 10.98 214.176 9.26 215.576 7.84C216.996 6.42 218.736 5.72 220.816 5.72C223.436 5.72 225.716 7 226.916 8.98L224.556 10.34C223.896 9.2 222.456 8.4 220.796 8.4C219.456 8.4 218.356 8.84 217.496 9.72C216.636 10.58 216.216 11.68 216.216 13.02C216.216 14.34 216.656 15.44 217.516 16.3C218.396 17.16 219.556 17.58 220.996 17.58C223.136 17.58 224.576 16.58 225.076 14.92H220.836V12.48ZM68.76 34H79.06V36.64H75.28V48H72.52V36.64H68.76V34ZM88.5608 39.56V34H91.3008V48H88.5608V42.2H83.3608V48H80.6008V34H83.3608V39.56H88.5608ZM105.902 48H102.902L102.062 45.48H96.4816L95.6416 48H92.6616L97.5616 34H100.982L105.902 48ZM99.2816 37.18L97.3616 42.9H101.202L99.2816 37.18ZM100.022 32.9L99.2216 31.68L98.4016 32.9H96.0216L97.9816 30.2H100.422L102.402 32.9H100.022ZM103.062 30.9H101.482C101.482 29.84 101.662 29.66 102.142 29.4C102.142 29.4 102.322 29.28 102.302 29.3C102.402 29.24 102.522 29.12 102.522 28.9C102.522 28.8 102.462 28.68 102.242 28.68C101.942 28.68 101.682 28.76 101.502 29.22L100.122 28.7C100.522 27.78 101.222 27.3 102.262 27.3C103.322 27.3 104.122 27.86 104.122 28.86C104.122 29.58 103.782 30.02 103.382 30.22C103.142 30.34 103.022 30.46 103.062 30.9ZM118.121 34H120.961V48H118.221V38.92L114.281 45.42H113.961L110.021 38.94V48H107.261V34H110.101L114.121 40.62L118.121 34ZM129.27 34H134.83C136.75 34 138.35 34.68 139.63 36.02C140.93 37.36 141.57 39.02 141.57 41C141.57 42.98 140.93 44.64 139.63 45.98C138.35 47.32 136.75 48 134.83 48H129.27V42.34H128.09V40.04H129.27V34ZM132.03 45.36H134.83C136.05 45.36 137.03 44.96 137.79 44.16C138.55 43.34 138.93 42.3 138.93 41C138.93 39.7 138.55 38.66 137.79 37.86C137.03 37.04 136.05 36.64 134.83 36.64H132.03V40.04H134.87V42.34H132.03V45.36ZM144.93 52.56C144.07 52.56 143.35 51.86 143.35 51.02C143.35 50.18 144.07 49.46 144.93 49.46C145.81 49.46 146.53 50.18 146.53 51.02C146.53 51.86 145.81 52.56 144.93 52.56ZM143.53 48V34H146.29V48H143.53ZM156.982 42.54V34H159.742V48H157.642L151.642 39.44V48H148.882V34H150.982L156.982 42.54ZM170.299 39.56V34H173.039V48H170.299V42.2H165.099V48H162.339V34H165.099V39.56H170.299ZM187.36 40.48H194.38V41.56C194.38 43.56 193.74 45.18 192.46 46.42C191.18 47.66 189.52 48.28 187.5 48.28C185.34 48.28 183.54 47.58 182.12 46.18C180.7 44.76 180 43.04 180 41.02C180 38.98 180.7 37.26 182.1 35.84C183.52 34.42 185.26 33.72 187.34 33.72C189.96 33.72 192.24 35 193.44 36.98L191.08 38.34C190.42 37.2 188.98 36.4 187.32 36.4C185.98 36.4 184.88 36.84 184.02 37.72C183.16 38.58 182.74 39.68 182.74 41.02C182.74 42.34 183.18 43.44 184.04 44.3C184.92 45.16 186.08 45.58 187.52 45.58C189.66 45.58 191.1 44.58 191.6 42.92H187.36V40.48ZM196.343 48V34H199.103V48H196.343ZM207.075 30H210.175L207.955 32.74H205.475L207.075 30ZM213.695 48H210.695L209.855 45.48H204.275L203.435 48H200.455L205.355 34H208.775L213.695 48ZM207.075 37.18L205.155 42.9H208.995L207.075 37.18ZM219.014 34H229.314V36.64H225.534V48H222.774V36.64H219.014V34ZM235.259 30L236.859 32.74H234.379L232.159 30H235.259ZM241.839 48H238.839L237.999 45.48H232.419L231.579 48H228.599L233.499 34H236.919L241.839 48ZM235.219 37.18L233.299 42.9H237.139L235.219 37.18ZM243.198 48V34H245.958V48H243.198ZM258.33 48.28C255.55 48.28 253.61 46.96 252.83 44.82L255.19 43.44C255.73 44.86 256.81 45.58 258.41 45.58C259.95 45.58 260.65 44.96 260.65 44.1C260.65 43.6 260.43 43.22 259.99 42.96C259.55 42.68 258.77 42.38 257.63 42.06C256.37 41.68 255.61 41.38 254.73 40.76C253.87 40.12 253.41 39.16 253.41 37.88C253.41 36.62 253.85 35.6 254.75 34.86C255.65 34.1 256.75 33.72 258.01 33.72C260.27 33.72 262.05 34.88 263.01 36.86L260.69 38.2C260.13 37 259.23 36.4 258.01 36.4C256.87 36.4 256.17 36.98 256.17 37.8C256.17 38.24 256.35 38.6 256.71 38.88C257.09 39.14 257.79 39.44 258.83 39.76L259.79 40.08C260.01 40.14 260.31 40.26 260.69 40.42C261.07 40.56 261.37 40.7 261.57 40.84C261.99 41.1 262.63 41.6 262.89 42.08C263.19 42.56 263.41 43.26 263.41 44.06C263.41 45.36 262.93 46.38 261.99 47.14C261.05 47.9 259.83 48.28 258.33 48.28ZM271.43 32.9H269.73C269.73 31.76 269.91 31.56 270.43 31.3C270.43 31.3 270.63 31.16 270.61 31.18C270.71 31.12 270.85 30.98 270.85 30.76C270.85 30.64 270.77 30.52 270.53 30.52C270.21 30.52 269.93 30.6 269.75 31.1L268.25 30.54C268.69 29.54 269.45 29.04 270.57 29.04C271.71 29.04 272.57 29.64 272.57 30.7C272.57 31.48 272.19 31.96 271.77 32.18C271.51 32.3 271.37 32.42 271.43 32.9ZM277.21 48H274.21L273.37 45.48H267.79L266.95 48H263.97L268.87 34H272.29L277.21 48ZM270.59 37.18L268.67 42.9H272.51L270.59 37.18ZM286.67 42.54V34H289.43V48H287.33L281.33 39.44V48H278.57V34H280.67L286.67 42.54Z" fill="white"/>
<defs>
<linearGradient id="paint0_linear_16930_141292" x1="51.645" y1="50.7515" x2="5.75" y2="50.7515" gradientUnits="userSpaceOnUse">
<stop stop-color="#3EA2F4"/>
<stop offset="0.532291" stop-color="#2C80E2"/>
<stop offset="1" stop-color="#1368BC"/>
</linearGradient>
</defs>
</svg>
